<svg width="240" height="142" viewBox="0 0 240 142" fill="none" xmlns="http://www.w3.org/2000/svg">
<g filter="url(#filter0_d_201_8)">
<rect x="1.81171" y="62.1488" width="124" height="51" rx="9" transform="rotate(-15 1.81171 62.1488)" fill="#A7DFFF" fill-opacity="0.61"/>
<path d="M49.3841 90.8128L40.7024 83.4489L40.3315 83.5483L33.7941 85.3L36.2166 94.3411L28.7056 96.3536L20.0093 63.8985L34.0577 60.1343C36.9323 59.364 39.5489 59.1764 41.9075 59.5714C44.297 59.9581 46.2996 60.8792 47.9154 62.3346C49.5311 63.79 50.662 65.7232 51.308 68.1341C51.954 70.5451 51.9258 72.7889 51.2233 74.8654C50.5435 76.9028 49.2614 78.6709 47.3771 80.1696L57.4516 88.6512L49.3841 90.8128ZM43.7043 70.1716C43.2156 68.3479 42.2556 67.1143 40.8243 66.4708C39.3847 65.7965 37.5367 65.7616 35.2803 66.3662L29.1602 68.0061L32.1915 79.319L38.3116 77.6791C40.568 77.0745 42.151 76.1203 43.0605 74.8164C43.97 73.5126 44.1846 71.9643 43.7043 70.1716ZM71.2063 71.3L68.0655 77.0115L70.2644 85.218L62.7998 87.2181L54.1034 54.763L61.5681 52.7629L65.6305 67.924L75.9411 48.9116L84.2867 46.6754L74.7171 64.7439L93.7712 78.9194L85.0083 81.2674L71.2063 71.3ZM117.771 37.7034L112.419 73.9228L105 75.9105L82.3021 47.2072L90.4159 45.0331L106.503 65.5692L110.306 39.7035L117.771 37.7034Z" fill="url(#paint0_linear_201_8)"/>
<mask id="mask0_201_8" style="mask-type:alpha" maskUnits="userSpaceOnUse" x="20" y="37" width="107" height="60">
<path d="M49.3841 90.8128L40.7024 83.4489L40.3315 83.5483L33.7941 85.3L36.2166 94.3411L28.7056 96.3536L20.0093 63.8985L34.0577 60.1343C36.9323 59.364 39.5489 59.1764 41.9075 59.5714C44.297 59.9581 46.2996 60.8792 47.9154 62.3346C49.5311 63.79 50.662 65.7232 51.308 68.1341C51.954 70.5451 51.9258 72.7889 51.2233 74.8654C50.5435 76.9028 49.2614 78.6709 47.3771 80.1696L57.4516 88.6512L49.3841 90.8128ZM43.7043 70.1716C43.2156 68.3479 42.2556 67.1143 40.8243 66.4708C39.3847 65.7965 37.5367 65.7616 35.2803 66.3662L29.1602 68.0061L32.1915 79.319L38.3116 77.6791C40.568 77.0745 42.151 76.1203 43.0605 74.8164C43.97 73.5126 44.1846 71.9643 43.7043 70.1716ZM71.2063 71.3L68.0655 77.0115L70.2644 85.218L62.7998 87.2181L54.1034 54.763L61.5681 52.7629L65.6305 67.924L75.9411 48.9116L84.2867 46.6754L74.7171 64.7439L93.7712 78.9194L85.0083 81.2674L71.2063 71.3ZM117.771 37.7034L112.419 73.9228L105 75.9105L82.3021 47.2072L90.4159 45.0331L106.503 65.5692L110.306 39.7035L117.771 37.7034Z" fill="black"/>
</mask>
<g mask="url(#mask0_201_8)">
<path d="M10.1161 83.85L47.8074 91.1259L60.1371 79.6456L77.9608 74.8697L91.504 79.4174L108.497 69.2427L101.534 59.3546L124.149 56.3612L140.392 31.8869L113.113 51.9721L97.254 54.8801L85.052 66.8372L74.2557 61.0424L62.4371 69.8306L51.8325 62.4514L40.5886 84.8836L11.969 70.0665L10.1161 83.85Z" fill="url(#paint1_linear_201_8)"/>
</g>
<rect x="120.089" y="70.8322" width="102" height="40" rx="5" transform="rotate(-15 120.089 70.8322)" fill="#A7DFFF"/>
<path d="M140.46 86.5161C140.392 86.5343 140.256 86.5707 140.052 86.6253C139.871 86.6738 139.668 86.7284 139.441 86.7891C139.215 86.8498 139 86.9074 138.796 86.962C138.592 87.0166 138.456 87.053 138.389 87.0712C138.105 87.0987 137.92 87.0876 137.834 87.0379C137.741 86.9655 137.671 86.8388 137.623 86.6577C137.574 86.4766 137.639 86.2651 137.817 86.0233C137.994 85.7816 138.209 85.542 138.461 85.3047C138.73 85.0387 138.99 84.787 139.242 84.5496C139.487 84.2897 139.657 84.0623 139.75 83.8674L139.65 83.4938C139.608 83.3354 139.562 83.1656 139.514 82.9845C139.482 82.7746 139.444 82.5905 139.402 82.432L139.011 80.9718C138.92 80.6322 138.809 80.31 138.679 80.0052C138.571 79.6944 138.449 79.3752 138.313 79.0477C138.23 78.8274 138.129 78.5875 138.011 78.328L138.057 78.4977C138.064 78.617 138.043 78.7197 137.994 78.8058C137.938 78.8693 137.856 78.9275 137.749 78.9805C137.665 79.0274 137.555 79.069 137.419 79.1054C137.147 79.1782 136.874 79.1544 136.599 79.0339C136.318 78.8908 136.132 78.6495 136.041 78.3099C135.92 77.8572 136.011 77.3837 136.316 76.8897C136.643 76.3896 137.081 75.8961 137.629 75.4093C138.195 74.8938 138.841 74.4054 139.566 73.9441C140.315 73.4767 141.052 73.0606 141.78 72.6959C142.501 72.3085 143.192 71.9899 143.853 71.74C144.508 71.4675 145.028 71.2796 145.412 71.1765L145.854 71.0582C146.058 71.0036 146.276 70.9573 146.508 70.9193C146.757 70.8526 146.984 70.7919 147.187 70.7373L147.629 70.619C148.511 70.6497 149.058 71.0612 149.27 71.8535L149.361 72.1931C149.403 72.3516 149.434 72.5131 149.454 72.6776C149.474 72.8422 149.468 73.0015 149.437 73.1555C149.422 73.2808 149.346 73.3617 149.211 73.3981C149.165 73.4102 149.12 73.4223 149.075 73.4345C149.046 73.4179 149.02 73.4126 148.998 73.4187C148.857 73.1652 148.708 72.9261 148.551 72.7014C148.406 72.5219 148.252 72.3567 148.09 72.206C147.945 72.0265 147.804 71.9066 147.667 71.8464L147.327 71.9374C147.168 71.9798 146.999 72.0253 146.818 72.0739C146.653 72.0937 146.492 72.1248 146.333 72.1673L145.993 72.2583C145.518 72.3857 144.916 72.5834 144.187 72.8515C143.481 73.1135 142.781 73.4465 142.089 73.8505C141.419 74.2483 140.827 74.7103 140.313 75.2363C139.799 75.7623 139.516 76.3356 139.463 76.9561L139.591 77.4315C139.651 77.6579 139.718 77.907 139.791 78.1786C139.864 78.4503 139.93 78.6993 139.991 78.9257L140.128 79.4351C140.322 80.1595 140.516 80.884 140.71 81.6084C140.904 82.3329 141.197 83.0187 141.589 83.6659C141.634 83.6538 141.716 83.6439 141.836 83.6362C141.949 83.6058 142.017 83.5876 142.039 83.5816C142.651 83.4178 143.244 83.1861 143.819 82.8865C144.393 82.5868 144.954 82.2789 145.5 81.9628C146.069 81.6405 146.644 81.3409 147.225 81.0639C147.799 80.7643 148.404 80.5295 149.038 80.3597C149.128 80.3354 149.284 80.2817 149.504 80.1984C149.724 80.1151 149.954 80.0657 150.192 80.0503C150.447 80.0062 150.678 80.0052 150.883 80.0472C151.111 80.0832 151.255 80.2144 151.316 80.4408C151.322 80.4634 151.312 80.5147 151.285 80.5948C151.28 80.6688 151.284 80.7284 151.296 80.7737C151.16 80.8101 150.937 80.8821 150.626 80.9896C150.338 81.0911 150.027 81.1987 149.693 81.3123C149.36 81.4259 149.041 81.5479 148.736 81.6781C148.448 81.7796 148.239 81.8598 148.109 81.9189C148.047 81.9597 147.867 82.0565 147.568 82.2094C147.269 82.3622 146.943 82.5468 146.588 82.7631C146.25 82.9507 145.912 83.1383 145.574 83.326C145.236 83.5136 144.971 83.6573 144.78 83.7572C144.679 83.8328 144.505 83.9523 144.257 84.1156C144.026 84.2503 143.776 84.4023 143.506 84.5717C143.258 84.7351 143.022 84.8954 142.798 85.0527C142.573 85.2099 142.429 85.309 142.368 85.3498C142.351 85.3785 142.318 85.436 142.268 85.5221L142.144 85.7374L142.208 85.9751C142.238 86.0883 142.271 86.2128 142.308 86.3486C142.338 86.4618 142.368 86.575 142.399 86.6882L142.462 86.9259C142.578 87.356 142.705 87.8314 142.845 88.3521C142.978 88.8502 143.137 89.3535 143.322 89.8621C143.523 90.3419 143.744 90.8044 143.985 91.2495C144.242 91.6659 144.544 92.0218 144.89 92.3173C144.89 92.3173 144.944 92.3391 145.053 92.3828C145.162 92.4264 145.27 92.4701 145.379 92.5137C145.504 92.5287 145.621 92.558 145.73 92.6016C145.839 92.6453 145.908 92.6754 145.936 92.692L145.973 92.8278C145.985 92.8731 145.997 92.9184 146.009 92.9636C146.038 92.9802 146.058 93.0111 146.07 93.0564C146.155 93.3734 146.156 93.6036 146.074 93.7471C145.991 93.8906 145.791 94.0049 145.474 94.0898C145.089 94.1929 144.73 94.1194 144.396 93.8692C144.056 93.5963 143.728 93.2351 143.414 92.7856C143.116 92.3073 142.837 91.7634 142.576 91.1538C142.332 90.5155 142.083 89.9028 141.829 89.3158C141.597 88.7228 141.366 88.178 141.136 87.6816C140.923 87.1565 140.697 86.768 140.46 86.5161ZM155.071 90.2443C155.053 90.1764 155.023 90.0632 154.98 89.9047C154.932 89.7236 154.872 89.5455 154.801 89.3705C154.746 89.1667 154.698 88.9856 154.655 88.8272C154.607 88.6461 154.57 88.5102 154.546 88.4197C154.376 87.7858 154.239 87.0945 154.136 86.3458C154.032 85.5971 153.98 84.8589 153.979 84.1312C153.972 83.3808 154.031 82.6493 154.155 81.9365C154.296 81.1951 154.53 80.526 154.855 79.9293C155.197 79.3038 155.634 78.762 156.167 78.304C156.699 77.8459 157.361 77.5107 158.154 77.2984C158.674 77.1588 159.113 77.2111 159.47 77.4553C159.82 77.6768 160.101 78.0018 160.313 78.4303C160.548 78.8528 160.732 79.313 160.865 79.8111C161.021 80.3031 161.151 80.7415 161.254 81.1264C161.491 82.0093 161.649 82.9617 161.728 83.9837C161.802 84.9831 161.741 85.9336 161.546 86.8351C161.351 87.7367 160.961 88.5448 160.376 89.2597C159.814 89.9684 159.001 90.4653 157.937 90.7504C157.62 90.8353 157.345 90.8968 157.112 90.9348C156.88 90.9729 156.661 90.9709 156.456 90.9288C156.244 90.8642 156.03 90.7882 155.812 90.7009C155.589 90.5909 155.342 90.4387 155.071 90.2443ZM156.096 89.3146C156.354 89.4638 156.619 89.5019 156.891 89.4291C157.163 89.3563 157.423 89.2866 157.672 89.2199C158.532 88.9893 159.176 88.5862 159.605 88.0105C160.027 87.4121 160.297 86.7453 160.415 86.0099C160.556 85.2684 160.58 84.4977 160.487 83.6976C160.411 82.8689 160.281 82.1149 160.099 81.4357C160.014 81.1188 159.923 80.7792 159.826 80.417C159.746 80.0261 159.618 79.6843 159.442 79.3916C159.284 79.0702 159.075 78.8349 158.817 78.6858C158.552 78.514 158.216 78.4827 157.809 78.5919C157.906 78.9541 157.933 79.2379 157.891 79.4433C157.849 79.6486 157.758 79.8065 157.618 79.9169C157.5 80.0212 157.343 80.112 157.145 80.1892C156.964 80.2377 156.769 80.3263 156.561 80.4549C156.375 80.5774 156.199 80.7338 156.032 80.9243C155.864 81.1147 155.747 81.4009 155.679 81.783C155.59 82.8988 155.503 83.9776 155.418 85.0194C155.35 86.0326 155.455 87.0598 155.734 88.1012C155.753 88.1691 155.777 88.2597 155.807 88.3729C155.831 88.4634 155.862 88.5766 155.898 88.7124C155.957 88.8422 156.002 88.9637 156.032 89.0769C156.057 89.1674 156.078 89.2467 156.096 89.3146ZM165.462 87.46C165.446 86.4938 165.386 85.6363 165.283 84.8876C165.196 84.1102 165.07 83.3675 164.904 82.6597C164.761 81.9457 164.576 81.2069 164.347 80.4433C164.14 79.6736 163.907 78.802 163.646 77.8285C163.284 77.9255 163.018 78.021 162.849 78.1148C162.703 78.2025 162.605 78.2895 162.555 78.3756C162.499 78.439 162.469 78.5078 162.465 78.5818C162.46 78.6557 162.433 78.7358 162.384 78.8219C162.35 78.8793 162.261 78.9519 162.114 79.0396C161.968 79.1274 161.725 79.2167 161.385 79.3077C161.182 79.3623 161.013 79.3225 160.88 79.1883C160.747 79.0541 160.653 78.8851 160.599 78.6814C160.55 78.5003 160.623 78.2745 160.818 78.004C160.99 77.7396 161.207 77.463 161.469 77.1744C161.754 76.8796 162.048 76.6188 162.351 76.392C162.677 76.1591 162.964 76.0093 163.213 75.9426C163.304 75.9183 163.441 75.9302 163.623 75.9783C163.823 75.9977 164.02 76.0541 164.215 76.1475C164.403 76.2182 164.561 76.3093 164.688 76.4209C164.838 76.5264 164.931 76.6471 164.967 76.7829L166.232 81.5031C166.367 81.1029 166.605 80.5417 166.946 79.8197C167.286 79.0976 167.686 78.3717 168.146 77.6419C168.599 76.8895 169.085 76.2133 169.604 75.6134C170.122 75.0134 170.631 74.6467 171.129 74.5132C171.808 74.3312 172.344 74.4302 172.737 74.8102C173.124 75.1675 173.405 75.6745 173.581 76.331C173.31 76.4038 173.082 76.4162 172.9 76.3681C172.717 76.32 172.543 76.2575 172.376 76.1807C172.233 76.0979 172.084 76.0407 171.93 76.0091C171.77 75.955 171.577 75.9582 171.35 76.0189C170.662 76.3488 170.08 76.8931 169.604 77.6515C169.128 78.41 168.724 79.2582 168.393 80.1961C168.085 81.128 167.834 82.093 167.64 83.0912C167.469 84.0833 167.322 84.984 167.2 85.7934C167.077 86.6028 166.974 87.2612 166.892 87.7685C166.832 88.2698 166.767 88.4813 166.698 88.4029C166.471 88.4635 166.229 88.4193 165.971 88.2701C165.729 88.0923 165.569 87.8562 165.49 87.5619L165.462 87.46ZM175.896 70.9792C175.443 71.1005 175.151 71.276 175.018 71.5057C174.886 71.7353 174.79 71.9672 174.731 72.2012C174.695 72.4293 174.656 72.646 174.614 72.8513C174.572 73.0567 174.427 73.1928 174.178 73.2595C173.906 73.3323 173.679 73.3446 173.496 73.2965C173.285 73.2319 173.14 73.0524 173.061 72.7581C173.005 72.4577 173.042 72.1444 173.173 71.8181C173.304 71.4919 173.489 71.1874 173.729 70.9048C173.985 70.5935 174.268 70.3358 174.577 70.1316C174.886 69.9274 175.217 69.8024 175.569 69.7567C175.886 69.6718 176.186 69.6156 176.47 69.5881C176.754 69.5605 177.015 69.5874 177.256 69.6686C177.496 69.7499 177.706 69.8999 177.886 70.1185C178.06 70.3146 178.198 70.6051 178.301 70.9899L181.313 82.2301L181.736 81.4982C181.752 81.4695 181.806 81.261 181.896 80.8729C182.002 80.4561 182.117 79.9766 182.238 79.4345C182.36 78.8924 182.478 78.3389 182.594 77.7741C182.732 77.2033 182.838 76.7381 182.912 76.3787C183.153 75.1978 183.302 74.0782 183.358 73.0198C183.408 71.9387 183.398 70.8132 183.327 69.6433C183.324 69.45 183.398 69.3208 183.551 69.2557C183.72 69.1619 183.861 69.0999 183.974 69.0695C183.997 69.0635 184.068 69.0566 184.187 69.0489C184.3 69.0186 184.379 68.9973 184.425 68.9852C184.473 69.1663 184.546 69.438 184.643 69.8002C184.763 70.1564 184.894 70.5578 185.038 71.0045C185.182 71.4512 185.332 71.9206 185.489 72.4126C185.639 72.8819 185.786 73.3399 185.93 73.7867C186.073 74.2334 186.205 74.6348 186.325 74.991C186.439 75.3245 186.52 75.5818 186.568 75.7629C186.605 75.8987 186.683 76.1447 186.802 76.5009C186.939 76.8283 187.104 77.1724 187.297 77.533C187.508 77.8648 187.743 78.1537 188.003 78.3995C188.263 78.6452 188.562 78.7226 188.902 78.6316C189.17 78.3656 189.43 78.0656 189.68 77.7317C189.93 77.3977 190.18 77.0637 190.431 76.7298C190.697 76.3671 190.962 76.0415 191.224 75.7528C191.503 75.4354 191.809 75.1716 192.14 74.9614C192.352 75.026 192.465 75.1776 192.481 75.4161C192.496 75.6547 192.441 75.9484 192.316 76.2973C192.192 76.6462 192.013 77.0215 191.781 77.4234C191.543 77.8026 191.268 78.1797 190.956 78.5544C190.638 78.9066 190.296 79.2165 189.931 79.4842C189.583 79.7231 189.233 79.8655 188.881 79.9112C188.224 80.0871 187.66 80.0198 187.189 79.7094C186.74 79.3929 186.361 78.9729 186.051 78.4494C185.757 77.8971 185.514 77.3071 185.322 76.6793C185.129 76.0515 184.972 75.5112 184.851 75.0584C184.602 75.1251 184.407 75.3956 184.268 75.8698C184.144 76.3153 184.037 76.8658 183.946 77.5211C183.854 78.1765 183.764 78.8801 183.674 79.6321C183.584 80.384 183.46 81.0968 183.301 81.7703C183.135 82.4212 182.926 82.9989 182.673 83.5035C182.437 83.9793 182.115 84.2719 181.707 84.381C181.413 84.4599 181.154 84.4444 180.931 84.3344C180.707 84.2245 180.517 84.0571 180.359 83.8324C180.202 83.6076 180.076 83.3624 179.98 83.0968C179.885 82.8312 179.804 82.5739 179.737 82.3249L176.88 71.662C176.862 71.594 176.818 71.5209 176.748 71.4424C176.673 71.3414 176.589 71.2547 176.497 71.1823C176.404 71.11 176.304 71.052 176.195 71.0083C176.086 70.9647 175.987 70.955 175.896 70.9792ZM193.232 71.4295L192.599 70.2889L192.079 70.7923L189.494 75.2702C189.477 75.2989 189.392 75.2975 189.238 75.266C189.055 75.2179 188.923 75.1803 188.843 75.1533C188.786 75.1201 188.714 75.0787 188.628 75.029C188.513 74.9627 188.453 74.9182 188.447 74.8956L188.41 74.7597C188.374 74.6239 188.418 74.3815 188.543 74.0326C188.645 73.6898 188.806 73.2948 189.026 72.8477C189.246 72.4005 189.497 71.933 189.779 71.445C190.077 70.9283 190.379 70.4712 190.685 70.0738C191.008 69.6477 191.323 69.2842 191.631 68.9834C191.938 68.6826 192.217 68.4988 192.466 68.4321C192.896 68.3168 193.267 68.4356 193.58 68.7886C193.91 69.1128 194.181 69.5374 194.395 70.0626C194.625 70.559 194.801 71.0819 194.924 71.6313C195.041 72.1581 195.133 72.546 195.2 72.795C195.237 72.6636 195.333 72.4317 195.486 72.0994C195.634 71.7444 195.79 71.3751 195.954 70.9914C196.112 70.5851 196.268 70.2158 196.421 69.8835C196.575 69.5512 196.682 69.3163 196.742 69.1788C196.792 69.0927 196.896 68.8948 197.056 68.5851C197.232 68.2467 197.42 67.9053 197.619 67.5608C197.834 67.1877 198.073 66.8567 198.335 66.5681C198.592 66.2568 198.833 66.0708 199.059 66.0101C199.467 65.9009 199.795 65.9466 200.043 66.1471C200.284 66.3249 200.473 66.5776 200.61 66.905C200.768 67.2264 200.888 67.5826 200.969 67.9735C201.043 68.3418 201.114 68.6505 201.18 68.8995C201.411 69.7598 201.582 70.6239 201.693 71.4918C201.804 72.3598 201.978 73.2353 202.215 74.1182L202.288 74.3898C202.617 73.7191 202.864 73.01 203.028 72.2625C203.214 71.5089 203.403 70.7666 203.596 70.0357C203.782 69.2821 204 68.5564 204.25 67.8586C204.522 67.1547 204.91 66.5172 205.412 65.9459C205.451 65.9111 205.516 65.8816 205.606 65.8573C205.713 65.8044 205.79 65.7718 205.835 65.7597C206.084 65.693 206.286 65.7237 206.442 65.8518C206.614 65.9512 206.742 66.1111 206.825 66.3314C206.925 66.5231 206.994 66.7351 207.032 66.9676C207.07 67.2 207.11 67.3955 207.153 67.5539C207.414 68.5274 207.615 69.5047 207.756 70.4859C207.892 71.4444 208.09 72.4104 208.351 73.3839C208.49 73.9046 208.695 74.2138 208.964 74.3117C209.255 74.4034 209.661 74.3795 210.182 74.24C210.431 74.1733 210.637 74.0817 210.8 73.9652C210.979 73.8201 211.147 73.678 211.304 73.5389C211.455 73.3772 211.612 73.2381 211.775 73.1216C211.954 72.9765 212.157 72.8736 212.384 72.8129C212.475 73.1525 212.469 73.4937 212.367 73.8365C212.258 74.1567 212.096 74.4551 211.879 74.7316C211.655 74.9855 211.389 75.2146 211.08 75.4188C210.765 75.6003 210.46 75.7305 210.166 75.8094C209.917 75.8761 209.647 75.9119 209.357 75.9168C209.09 75.9156 208.825 75.8774 208.562 75.8022C208.316 75.6984 208.083 75.5545 207.864 75.3705C207.668 75.1805 207.527 74.9271 207.442 74.6101L205.695 68.0901C205.495 68.338 205.3 68.7421 205.11 69.3024C204.943 69.8567 204.772 70.4849 204.596 71.1872C204.443 71.8834 204.287 72.6165 204.13 73.3867C203.995 74.1508 203.842 74.8469 203.67 75.4752C203.499 76.1035 203.318 76.6495 203.126 77.1132C202.929 77.5543 202.706 77.8082 202.457 77.8749C202.208 77.9416 201.997 77.8769 201.823 77.6809C201.649 77.4848 201.503 77.257 201.385 76.9975C201.283 76.7093 201.199 76.4406 201.132 76.1916C201.066 75.9426 201.02 75.7728 200.996 75.6822C200.85 75.1389 200.739 74.5865 200.661 74.0249C200.583 73.4634 200.517 72.8988 200.462 72.3312C200.401 71.741 200.332 71.1651 200.254 70.6036C200.176 70.042 200.065 69.4896 199.919 68.9463C199.901 68.8784 199.874 68.7765 199.837 68.6407C199.801 68.5048 199.745 68.3864 199.669 68.2853C199.61 68.1555 199.534 68.0545 199.442 67.9821C199.344 67.8871 199.238 67.8548 199.125 67.8851C199.103 67.8912 199.083 67.9086 199.066 67.9373C199.066 67.9373 199.055 67.9403 199.032 67.9464C199.038 67.969 199.019 67.9864 198.974 67.9985C198.951 68.0046 198.915 68.0507 198.865 68.1368C198.815 68.2229 198.785 68.2917 198.775 68.343C198.611 68.7267 198.392 69.2221 198.117 69.8294C197.843 70.4366 197.578 71.0295 197.32 71.608C197.063 72.1866 196.844 72.682 196.663 73.0944C196.482 73.5068 196.381 73.716 196.358 73.7221C196.326 73.8761 196.29 74.2377 196.248 74.807C196.229 75.3701 196.2 75.9846 196.16 76.6505C196.137 77.2876 196.118 77.8991 196.106 78.4849C196.087 79.048 196.061 79.4066 196.03 79.5607C196.014 79.9532 195.933 80.2417 195.789 80.426C195.644 80.6104 195.39 80.7511 195.028 80.8482C194.822 80.0784 194.653 79.3109 194.52 78.5457C194.388 77.7804 194.267 77.0121 194.158 76.2407C194.042 75.4467 193.918 74.6671 193.786 73.9018C193.647 73.1139 193.472 72.3237 193.26 71.5314L193.232 71.4295ZM211.189 70.2576C211.177 70.2123 211.159 70.1444 211.135 70.0538C211.11 69.9633 211.083 69.8614 211.053 69.7482C211.045 69.629 211.029 69.524 211.005 69.4335C210.975 69.3203 210.956 69.2524 210.95 69.2297C210.955 69.1558 211.013 69.0553 211.124 68.9283C211.259 68.7953 211.363 68.731 211.437 68.7355C211.585 68.7444 211.752 68.8695 211.938 69.1108C212.124 69.3521 212.325 69.6501 212.541 70.0046C212.757 70.3591 212.997 70.7559 213.26 71.1949C213.54 71.6052 213.848 71.9838 214.183 72.3307C214.536 72.6488 214.924 72.9208 215.348 73.1468C215.789 73.344 216.271 73.4212 216.793 73.3783C216.958 73.3585 217.083 73.3251 217.167 73.2782C217.245 73.2087 217.287 73.1369 217.291 73.0629C217.312 72.9602 217.311 72.8636 217.286 72.7731C217.256 72.6599 217.232 72.5693 217.214 72.5014C217.082 72.1 216.811 71.7236 216.402 71.3723C215.986 70.9984 215.508 70.617 214.967 70.2282C214.42 69.8167 213.867 69.3825 213.307 68.9257C212.742 68.4463 212.239 67.926 211.797 67.3649C211.35 66.7812 210.995 66.1362 210.733 65.43C210.465 64.7011 210.388 63.8723 210.503 62.9437C210.449 62.74 210.478 62.441 210.591 62.0468C210.726 61.6466 210.902 61.2599 211.117 60.8867C211.349 60.4848 211.604 60.1252 211.883 59.8078C212.162 59.4904 212.426 59.2984 212.675 59.2317C213.038 59.1346 213.395 59.1115 213.749 59.1624C214.125 59.2073 214.446 59.3639 214.712 59.6323C215.017 59.866 215.383 60.1924 215.811 60.6116C216.256 61.0021 216.655 61.4047 217.008 61.8195C217.385 62.2282 217.658 62.6158 217.83 62.9825C218.001 63.3492 217.959 63.6028 217.706 63.7436C217.389 63.8285 217.093 63.8107 216.818 63.6903C216.566 63.5637 216.335 63.3829 216.127 63.1476C215.918 62.9123 215.715 62.6514 215.517 62.3648C215.312 62.0555 215.106 61.7832 214.897 61.548C214.689 61.3127 214.47 61.1288 214.24 60.9962C214.004 60.841 213.739 60.8028 213.445 60.8816C213.037 60.9908 212.709 61.2124 212.458 61.5464C212.231 61.8742 212.064 62.2466 211.957 62.6634C211.873 63.0742 211.843 63.5067 211.868 63.9611C211.909 64.3868 211.972 64.7582 212.057 65.0751C212.209 65.6411 212.453 66.1458 212.791 66.5893C213.144 67.004 213.54 67.3953 213.979 67.7632C214.433 68.1023 214.911 68.4354 215.411 68.7624C215.934 69.0834 216.414 69.4278 216.853 69.7956C217.307 70.1348 217.712 70.5117 218.065 70.9265C218.419 71.3412 218.669 71.8203 218.815 72.3636C218.875 72.59 218.879 72.8316 218.827 73.0883C218.791 73.3163 218.71 73.5564 218.583 73.8087C218.473 74.0323 218.32 74.231 218.124 74.4049C217.928 74.5787 217.717 74.696 217.49 74.7566C216.856 74.9265 216.205 74.8948 215.536 74.6616C214.867 74.4284 214.227 74.0781 213.616 73.6108C213.029 73.1375 212.511 72.6089 212.063 72.0252C211.632 71.4128 211.341 70.8236 211.189 70.2576Z" fill="#0C0C0C"/>
</g>
<defs>
<filter id="filter0_d_201_8" x="3.83215" y="32.0757" width="236.012" height="93.3148" filterUnits="userSpaceOnUse" color-interpolation-filters="sRGB">
<feFlood flood-opacity="0" result="BackgroundImageFix"/>
<feColorMatrix in="SourceAlpha" type="matrix" values="0 0 0 0 0 0 0 0 0 0 0 0 0 0 0 0 0 0 127 0" result="hardAlpha"/>
<feOffset dx="7" dy="11"/>
<feGaussianBlur stdDeviation="2.5"/>
<feComposite in2="hardAlpha" operator="out"/>
<feColorMatrix type="matrix" values="0 0 0 0 0 0 0 0 0 0 0 0 0 0 0 0 0 0 0.25 0"/>
<feBlend mode="normal" in2="BackgroundImageFix" result="effect1_dropShadow_201_8"/>
<feBlend mode="normal" in="SourceGraphic" in2="effect1_dropShadow_201_8" result="shape"/>
</filter>
<linearGradient id="paint0_linear_201_8" x1="63.2681" y1="38.4346" x2="78.3437" y2="94.6975" gradientUnits="userSpaceOnUse">
<stop offset="0.00312487" stop-color="#2D3797"/>
<stop offset="0.253125" stop-color="#083228" stop-opacity="0.79"/>
<stop offset="0.326042" stop-color="#13070E" stop-opacity="0.83151"/>
<stop offset="0.654167" stop-color="#2F443F" stop-opacity="0.913542"/>
<stop offset="0.784471" stop-color="#377A6A" stop-opacity="0.946118"/>
<stop offset="0.843521" stop-color="#212927" stop-opacity="0.96088"/>
</linearGradient>
<linearGradient id="paint1_linear_201_8" x1="73.122" y1="49.9117" x2="81.7298" y2="82.0364" gradientUnits="userSpaceOnUse">
<stop stop-color="#78F08C"/>
<stop offset="0.469663" stop-color="#FF04F5" stop-opacity="0.530337"/>
<stop offset="1" stop-color="#002584" stop-opacity="0"/>
</linearGradient>
</defs>
</svg>
